<?xml version="1.0" encoding="iso-8859-1"?>
<!-- Generator: Adobe Illustrator 19.0.0, SVG Export Plug-In . SVG Version: 6.00 Build 0)  -->
<svg version="1.1" id="Layer_1" xmlns="http://www.w3.org/2000/svg" xmlns:xlink="http://www.w3.org/1999/xlink" x="0px" y="0px"
	 viewBox="0 0 512 512" style="enable-background:new 0 0 512 512;" xml:space="preserve">
<circle style="fill:#FC6F58;" cx="256" cy="256" r="256"/>
<path style="fill:#F1543F;" d="M506.532,308.824l-167.8-167.798l-4.37,122.318l-111.638-111.64l-28.208,195.663l-2.396,30.711
	l126.254,126.254C412.803,480.69,486.436,404.609,506.532,308.824z"/>
<path style="fill:#FFFFFF;" d="M276.22,292.071c-2.857-6.01-8.916-9.84-15.57-9.84h-37.926V151.704h-34.478v130.527h-37.926
	c-6.654,0-12.714,3.831-15.57,9.84s-1.998,13.128,2.205,18.285l55.165,67.722c3.274,4.02,8.183,6.353,13.365,6.353
	c5.182,0,10.092-2.332,13.365-6.353l55.165-67.722C278.218,305.199,279.076,298.082,276.22,292.071z"/>
<path style="fill:#E6F3FF;" d="M276.22,292.071c-2.857-6.01-8.916-9.84-15.57-9.84h-37.926V151.704h-16.429v232.682
	c4.88-0.231,9.454-2.498,12.555-6.306l55.165-67.722C278.218,305.199,279.076,298.082,276.22,292.071z"/>
<path style="fill:#FFFFFF;" d="M392.173,208.746l-53.441-67.722c-3.268-4.143-8.256-6.559-13.533-6.559s-10.264,2.417-13.533,6.559
	l-53.441,67.722c-4.093,5.186-4.861,12.254-1.979,18.199s8.907,9.719,15.513,9.719h36.202v130.527h34.478V236.665h36.202
	c6.606,0,12.631-3.775,15.513-9.719C397.038,221.001,396.266,213.932,392.173,208.746z"/>
<path style="fill:#E6F3FF;" d="M392.173,208.746l-53.441-67.722c-3.26-4.13-8.228-6.544-13.488-6.558v232.726h17.194V236.665h36.202
	c6.606,0,12.631-3.775,15.513-9.719C397.036,221.001,396.266,213.932,392.173,208.746z"/>
<g>
</g>
<g>
</g>
<g>
</g>
<g>
</g>
<g>
</g>
<g>
</g>
<g>
</g>
<g>
</g>
<g>
</g>
<g>
</g>
<g>
</g>
<g>
</g>
<g>
</g>
<g>
</g>
<g>
</g>
</svg>
